# xmcd CD database file
#
# Track frame offsets:
#	150
#	17957
#	30044
#	53142
#	73555
#	95345
#	111243
#	123376
#	139097
#	154029
#	178355
#	197256
#	213287
#	240492
#
# Disc length: 3465 seconds
#
# Revision: 0
# Processed by: cddbd v1.5.1PL2 Copyright (c) Steve Scherf et al.
# Submitted via: CDex 1.51
#
DISCID=b60d870e
DTITLE=Lance Harrison Band - No Rest for the Wicked
DYEAR=2005
DGENRE=Blues
TTITLE0=GET USED TO IT
TTITLE1=CITY
TTITLE2=ELIZA JANE
TTITLE3=I KNOW EVERY TRAIN
TTITLE4=HOME AGAIN
TTITLE5=BETTER THAN DEAD
TTITLE6=I´M GOING HOME
TTITLE7=BAD WATER
TTITLE8=CHICKEN SHACK
TTITLE9=IF YOU COULD
TTITLE10=BACK ON YOU
TTITLE11=BAD
TTITLE12=NINE FOOT SACK
TTITLE13=ONLY MEMORIES
EXTD=YEAR: 2005
EXTT0=
EXTT1=
EXTT2=
EXTT3=
EXTT4=
EXTT5=
EXTT6=
EXTT7=
EXTT8=
EXTT9=
EXTT10=
EXTT11=
EXTT12=
EXTT13=
PLAYORDER=
